<?xml version="1.0" encoding="UTF-8"?>
<svg version="1.1"
viewBox="0 0 200 167.84"
width="200"
height="167.84"
 xmlns="http://www.w3.org/2000/svg" xmlns:xlink="http://www.w3.org/1999/xlink">
 <defs>
  <linearGradient id="g">
   <stop stop-color="#dbdbd9" offset="0"/>
   <stop stop-color="#aaaba6" offset=".42044"/>
   <stop stop-color="#d1d1cf" offset=".62811"/>
   <stop stop-color="#54554f" offset=".83416"/>
   <stop stop-color="#fff" offset="1"/>
  </linearGradient>
  <filter id="h" x="-.0083659" y="-.021215" width="1.0167" height="1.0424" color-interpolation-filters="sRGB">
   <feGaussianBlur stdDeviation="0.76521389"/>
  </filter>
  <radialGradient id="e" cx="315" cy="422.36" r="85" fx="289.42" fy="503.27" gradientTransform="matrix(1.1024 0 0 .8383 233.86 75.425)" gradientUnits="userSpaceOnUse">
   <stop stop-color="#a0443f" offset="0"/>
   <stop stop-color="#908d88" offset="1"/>
  </radialGradient>
  <linearGradient id="f" x1="473.78" x2="737.82" y1="549.14" y2="549.14" gradientTransform="matrix(.75459 0 0 .75459 125.53 107.94)" gradientUnits="userSpaceOnUse">
   <stop stop-color="#81827d" offset="0"/>
   <stop stop-color="#82837e" offset=".27155"/>
   <stop stop-color="#43443f" offset=".6197"/>
   <stop stop-color="#a8a9a4" offset="1"/>
  </linearGradient>
  <radialGradient id="a" cx="570.88" cy="543.22" r="132.52" gradientTransform="matrix(1.003 .26875 -.28721 1.0719 149.64 -228.96)" gradientUnits="userSpaceOnUse" xlink:href="#g"/>
  <radialGradient id="d" cx="604.7" cy="427.39" r="110.02" fx="586.93" fy="673.62" gradientTransform="matrix(.77429 0 0 .58156 113.64 181.89)" gradientUnits="userSpaceOnUse">
   <stop stop-color="#b5110f" offset="0"/>
   <stop stop-color="#eb2a25" offset=".68179"/>
   <stop stop-color="#fd4a46" offset="1"/>
  </radialGradient>
  <radialGradient id="c" cx="571.13" cy="513.9" r="109.76" gradientTransform="matrix(1.3645 .35551 -.27829 1.0681 -79.797 -274.47)" gradientUnits="userSpaceOnUse">
   <stop stop-color="#eb4946" offset="0"/>
   <stop stop-color="#d62925" offset=".60408"/>
   <stop stop-color="#f46a64" offset="1"/>
  </radialGradient>
  <radialGradient id="b" cx="604.69" cy="455.5" r="111.6" fx="603.98" fy="549.94" gradientTransform="matrix(1.3931 0 0 .56323 -237.69 198.95)" gradientUnits="userSpaceOnUse">
   <stop stop-color="#fe7d7a" offset="0"/>
   <stop stop-color="#fe7d7a" stop-opacity="0" offset="1"/>
  </radialGradient>
 </defs>
 <g transform="translate(-480.75 -359.63)" fill-rule="evenodd">
  <g stroke-width=".75459">
   <path d="m680.71 455.79c-1.4798 41.526-47.434 73.578-102.64 71.591-55.207-1.987-98.761-37.261-97.282-78.787 0.0339-0.93502 0.0893-11.028 0.1673-11.953 3.3866-40.162 48.509-61.58 102.47-59.638 53.512 1.9259 96.074 22.998 97.289 62.851 0.0392 1.2629 0.0362 14.659-0.01 15.935z" fill="url(#f)"/>
   <path d="m680.71 439.19c-1.4798 41.526-47.434 73.578-102.64 71.591-55.207-1.987-98.761-37.261-97.282-78.787 1.4798-41.526 47.434-73.578 102.64-71.591 55.207 1.987 98.761 37.261 97.282 78.787z" fill="url(#a)"/>
   <path d="m680.71 439.19c-1.4798 41.526-47.434 73.578-102.64 71.591-55.207-1.987-98.761-37.261-97.282-78.787 1.4798-41.526 47.434-73.578 102.64-71.591 55.207 1.987 98.761 37.261 97.282 78.787z" fill="url(#a)"/>
   <path d="m643.76 378.15c20.611 14.545 32.323 37.601 33.179 60.273 0.824 21.835-15.259 39.66-35.001 52.604-17.122 11.227-35.968 19.156-61.609 18.233-22.863-0.82288-50.522-8.8506-67.017-19.171 17.126 12.054 39.737 19.78 64.753 20.68 55.207 1.987 101.17-30.066 102.65-71.592 0.86544-24.286-13.688-46.426-36.952-61.028z" fill="#fbfbfb" opacity=".58744"/>
  </g>
  <ellipse cx="581.11" cy="429.49" rx="88.09" ry="66.988" fill="url(#e)" stroke-width=".90364"/>
  <g stroke-width=".75459">
   <path d="m664.6 433.29c-1.254 34.393-39.597 62.599-86.371 60.953-46.777-1.6457-80.628-29.717-79.375-64.11 0.017-0.45663 0.17406-9.6708 0.203-10.125 2.1406-33.757 37.56-51.936 83.714-50.312 45.437 1.5985 81.232 20.772 82.084 53.783 0.0255 0.97364-0.21581 8.8257-0.25191 9.8112z" fill="#330706"/>
   <path d="m664.6 431.78c-1.254 34.393-39.597 62.599-86.371 60.953-46.777-1.6457-80.628-29.717-79.375-64.11 0.017-0.45663 0.17406-9.6708 0.203-10.125 2.1406-33.757 37.56-51.936 83.714-50.312 45.437 1.5985 81.232 20.772 82.084 53.783 0.0255 0.97366-0.21581 8.8257-0.25191 9.8112z" fill="url(#d)"/>
   <path d="m664.62 424.96c-1.2256 34.393-39.286 60.939-85.012 59.294-45.724-1.6457-81.798-30.86-80.575-65.253 1.2257-34.393 39.286-60.939 85.012-59.294 45.724 1.6457 81.798 30.86 80.575 65.253z" fill="url(#c)"/>
  </g>
  <path transform="matrix(.75459 0 0 .75459 125.53 107.94)" d="m494.97 412.22c-1.6242 45.578 46.186 84.288 106.78 86.469 60.595 2.1809 111.03-32.984 112.66-78.562 0.0556-1.5606 0.0588-3.1129 0-4.6562-3e-3 0.0941 3e-3 0.18708 0 0.28125-1.6242 45.578-52.061 80.775-112.66 78.594-58.646-2.1107-105.31-38.47-106.78-82.125z" fill="url(#b)" filter="url(#h)"/>
  <path d="m480.77 434.93c-0.445 40.903 42.721 75.381 97.297 77.346 55.207 1.987 101.17-30.066 102.65-71.592 0.0327-0.90204 0.0341-1.7924 0.0239-2.6882-6e-3 0.39453-0.01 0.78343-0.0239 1.1791-1.4798 41.526-47.44 73.579-102.65 71.592-53.897-1.9398-96.67-35.601-97.297-75.836z" fill="#353631" stroke-width=".75459"/>
 </g>
 <g transform="translate(-9.9997 -26.081)">
  <g transform="translate(1.3)" stroke="#000" stroke-linejoin="round" stroke-miterlimit="5" stroke-width="0">
   <g transform="rotate(-16.672)" style="paint-order:stroke fill markers" aria-label="Do Not Click">
    <path d="m66.65 66.898c-2.7414-0.0087-5.483-0.01283-8.2246-0.0098v4.7383c0.87263 0.21815 1.8678 0.18247 2.6875 0.41406 0.02783 3.9059 0.03142 7.8139 9.2e-5 11.72 0.16648 0.62744-0.64756 0.30974-1.002 0.4088-0.51322 0.01195-1.0221 0.08664-1.5332 0.12891-0.21656 1.617-0.08879 3.2482-0.13477 4.873 4.347-0.0559 8.7001 0.10564 13.043-0.09278 3.8491-0.33438 7.8548-2.1164 9.8078-5.6065 1.8216-3.1927 1.7799-7.3036 0.17282-10.57-1.8732-3.5967-5.8706-5.6766-9.8286-5.9237-1.6587-0.14969-3.3253-0.10105-4.9882-0.08067zm3.2148 5.1719c1.6946-0.02618 2.9883 1.6761 3.252 3.0801 0.60641 2.3387 0.49606 4.9683-0.25842 7.1758-0.42626 1.0814-1.5489 1.7579-2.7028 1.6681-0.77646 0.16626-0.28971-0.95298-0.43961-1.4117-0.03777-3.5046 0.0056-7.0095-0.01126-10.514l0.09999 0.0012z"/>
    <path d="m89.49 72.023c-3.4767 0.02368-7.1159 1.9617-8.3742 5.3322-1.483 3.6524-0.38343 8.375 3.0055 10.576 3.0938 2.0878 7.2966 2.1252 10.627 0.58513 2.66-1.2886 4.4714-4.053 4.652-6.9969 0.32443-3.3341-1.3509-6.8991-4.4395-8.375-1.6756-0.8715-3.5964-1.1804-5.4707-1.1211zm0.50391 5.041c0.58867 0.45104 0.51589 1.3728 0.63153 2.0527 0.13988 1.7875 0.23703 3.6946-0.50262 5.3653-0.55474 0.2374-0.54478-0.60832-0.69795-0.92764-0.3946-1.8031-0.26536-3.6916-0.02413-5.5067 0.09847-0.32034 0.15838-0.96692 0.59317-0.98366z"/>
    <path d="m52.621 100.87v3.6523c0.99922 0.29431 2.2039 0.22879 3.0137 0.95899 0.31626 0.94282 0.13481 2.0068 0.18882 2.9988-0.08252 2.6204 0.10344 5.2466-0.08335 7.8625 0.1265 0.61405-0.3323 0.77534-0.84961 0.75781-0.72929 0.0778-1.6717-0.0108-2.0215 0.81055-0.3614 0.89683-0.0829 1.8947-0.1781 2.8362-0.0089 0.50917 0.26752 0.94824 0.44958 1.406h11.416v-4.6172c-0.98955-0.2679-2.0344-0.34948-2.9863-0.74024-0.42133-1.3328-0.14085-2.7636-0.23437-4.1383-0.1416-1.0233 0.15726-0.79798 0.62747-0.087 2.6014 3.2281 5.2026 6.4563 7.8042 9.6842h5.25c0.0474-5.6019-0.09378-11.21 0.08598-16.808-0.0171-0.69495 0.79758-0.41893 1.2788-0.5884 0.55039-0.14252 1.3695-0.0488 1.7544-0.3347v-4.6539h-11.846v4.6152c0.98251 0.25921 2.0178 0.3555 2.9609 0.73828 0.41353 1.0697 0.16449 2.2426 0.24609 3.3594-2.3485-2.9042-4.6957-5.8093-7.0449-8.7129h-9.832v1z"/>
    <path d="m84.314 105.01c-3.4893 0.0216-7.1481 1.98-8.3848 5.3747-1.4831 3.6731-0.32907 8.4167 3.0993 10.587 3.0868 2.0305 7.2402 2.0607 10.54 0.53257 2.6617-1.2848 4.4769-4.048 4.6574-6.992 0.32451-3.3122-1.3217-6.8578-4.377-8.35-1.6904-0.89259-3.6376-1.2164-5.5351-1.1519zm0.47852 5.0352c0.58001 0.33915 0.5147 1.2036 0.63794 1.8042 0.16895 1.8042 0.24966 3.7121-0.38013 5.4361-0.22365 0.56193-0.69199-0.0133-0.70117-0.36328-0.5001-1.9554-0.4033-4.0276-0.09375-6.0039 0.11733-0.26688 0.15407-0.86459 0.53711-0.87304z"/>
    <path d="m93.539 102.52c1e-6 0.96745 0 1.9349 0 2.9024-0.79036-1e-5 -1.5807 0-2.3711 0v5.3926h2.3242c0.04096 2.466-0.13157 4.9477 0.12943 7.4027 0.39577 2.2795 2.4545 4.087 4.7604 4.2198 2.2611 0.27792 4.5619-0.33234 6.5672-1.3549 0.95583-0.77227 0.40013-2.0638 0.56445-3.0957 0.20934-0.9067-0.57069-1.9479-1.5449-1.6504-0.70458 0.15663-1.4297 0.30221-2.1562 0.30273-0.13172-1.4031-0.0122-2.8258-0.0606-4.2371 0.1472-0.48184-0.32628-1.5844 0.3-1.5871h3.282v-5.3926c-1.2025-1e-5 -2.4049-1e-5 -3.6074 0v-3.9024h-8.1875v1z"/>
    <path d="m55.234 132.37c-4.3486 0.10429-8.6612 2.7203-10.336 6.8089-1.9982 4.5369-1.0906 10.434 2.7636 13.721 3.4012 2.885 8.5003 3.5188 12.558 1.7302 2.2867-1.0447 4.0265-3.0241 5.1241-5.248 0.70735-0.84557 0.29987-2.2413-0.77281-2.5404-0.97252-0.54481-1.9149-1.1507-2.8756-1.7194-1.0483 1.708-1.9718 3.8673-4.0294 4.5479-1.477 0.481-3.3845-0.11665-3.8984-1.6925-1.0046-2.3715-0.86928-5.0653-0.39802-7.5434 0.26443-1.272 1.0062-2.8403 2.5152-2.8335 1.414-0.0546 2.4053 1.1457 2.9277 2.3262 0.56809 1.1492 0.91633 2.3869 1.3301 3.5957h4.6113c-0.06197-3.5619-0.12486-7.1237-0.1875-10.686-1.3646 0.0794-2.746-0.12201-4.0957 0.15235-0.28225 0.44545-0.87796-0.16352-1.3315-0.17185-1.2665-0.35771-2.5904-0.50323-3.9048-0.44729z"/>
    <path d="m70.389 131.16c-2.8419 0.21347-5.7004 0.30511-8.5488 0.4707v4.5566c0.79757 0.17602 1.6223 0.2055 2.4141 0.39649 0.03867 3.8216 0.01759 7.6588 0.02061 11.487-0.0062 0.71016-0.01244 1.4203-0.01866 2.1305-0.63461 0.0517-1.267 0.12727-1.9004 0.19335v4.7422h12.076v-4.6602c-0.62998-0.096-1.259-0.19959-1.8906-0.28321-0.06374-5.8741-0.0076-11.749-0.02734-17.623-0.66528-0.54537-1.1165-1.5193-2.125-1.4102z"/>
    <path d="m76.936 131.2c-2.6038 0.15866-4.7584 2.9608-3.9338 5.51 0.1731 0.67035 0.5373 1.2893 1.0236 1.7811-0.89256 0.0473-1.7851 0.0952-2.6777 0.14063v4.5c0.73966 0.19527 1.5001 0.27794 2.248 0.41992 0.06409 2.2097 0.02701 4.4206 0.02539 6.6309-0.75039-0.0332-1.6878 0.10432-1.9121 0.96289-0.10717 0.87634 0.01466 1.7632-0.05859 2.6445-0.0078 0.88848 0.86463 1.548 1.7188 1.3398h10.443v-4.6367c-0.64234-0.11088-1.2847-0.22375-1.9297-0.3164-0.07408-3.3723-0.0041-6.7596-0.0293-10.123-0.08259-0.67365-0.65239-1.1696-1.0703-1.5957 1.4906-1.568 1.5466-4.2734-0.01395-5.8149-0.96465-1.0533-2.4183-1.5741-3.8337-1.4429z"/>
    <path d="m90.121 137.99c-3.7198 0.0528-7.4105 2.4726-8.5242 6.0965-1.1961 3.6439 0.08618 8.2345 3.5429 10.172 2.5373 1.4158 5.7525 1.7384 8.4713 0.65985 2.2053-0.90966 3.9653-2.8012 4.8304-4.9967 0.21432-0.94779-0.71782-1.4826-1.3965-1.8945-0.52712-0.32821-1.0321-0.81793-1.5742-1.0488 2.1872-0.8923 2.7605-3.8071 1.7443-5.7767-1.0586-2.2324-3.6931-3.1131-6.0047-3.2015-0.36296-0.0228-0.72586-0.014-1.0892-0.0101zm-0.14648 7.8144c0.94353 1.2113 2.6794 1.6449 4.0801 1.5586-0.61085 0.91001-1.1158 2.3427-2.4273 2.3074-1.2143-0.0616-1.7149-1.5022-1.7426-2.5438 0.02769-0.27752-0.18728-1.6537 0.08984-1.3223z"/>
    <path d="m102.77 131.16c-2.8145 0.21354-5.6457 0.30579-8.4668 0.4707v4.5957c0.7732 0.15042 1.5595 0.19597 2.3379 0.29687 0.03325 3.5568 0.01282 7.1278 0.02197 10.691 0.0034 0.99577-0.01679 1.9914-0.02588 2.9871-0.63333 0.0517-1.2644 0.12729-1.8965 0.19335v4.7422h20.799v-4.7226c-0.84465-0.17221-1.8041-0.0347-2.5723-0.44922-1.1242-1.7357-2.3216-3.4279-3.4863-5.1387 1.2236-0.93967 2.6865-1.4923 4.1602-1.8789 0.89319-0.38453 0.80901-1.462 0.74219-2.2578 0.11224-0.86884 0.0398-2.1031-1.002-2.3398-0.89255-0.0698-1.8093 0.0606-2.7164 8e-3h-5.766v-5.7871c-0.66506-0.5468-1.1195-1.5196-2.1289-1.4102z"/>
   </g>
   <g transform="rotate(-16.672)" fill="#fff" style="paint-order:stroke fill markers" aria-label="Do Not Click">
    <path d="m76.916 70.769q1.6749 1.0951 2.7055 2.9246 1.0307 1.8166 1.0307 4.4577 0 2.319-0.92761 4.0454-0.91473 1.7135-2.435 2.8086-1.546 1.0951-3.5172 1.6362-1.9583 0.52822-4.1098 0.52822h-9.2117v-1.0049q0.41227-0.01288 1.0307-0.0773t0.82454-0.1546q0.46381-0.19325 0.64418-0.51534 0.18037-0.33497 0.18037-0.79878v-12.961q0-0.43804-0.16749-0.78589-0.16748-0.36074-0.65706-0.57976-0.48957-0.21902-1.0436-0.29632-0.54111-0.0773-0.83743-0.10307v-1.0049h9.727q1.5589 0 3.3368 0.39939 1.7779 0.39939 3.427 1.4816zm-2.6282 13.103q0.63129-1.0307 0.91473-2.4479 0.29632-1.4301 0.29632-3.2853 0-1.8166-0.3865-3.3111-0.3865-1.4945-1.1337-2.5509-0.74724-1.0564-1.8681-1.6362-1.108-0.57976-2.5252-0.57976-0.45092 0-1.0307 0.02577-0.56687 0.01288-0.85031 0.02577v13.876q0 0.46381 0.11595 0.82454 0.12884 0.34785 0.42516 0.61841 0.29632 0.27055 0.72148 0.42516 0.43804 0.14172 1.1337 0.14172 1.4558 0 2.4994-0.54111 1.0436-0.54111 1.6877-1.5847z"/>
    <path d="m95.468 75.91q0.95338 0.88896 1.4558 2.1258 0.50246 1.2368 0.50246 2.6798 0 1.4301-0.50246 2.7055-0.48957 1.2626-1.443 2.1644-1.0178 0.96626-2.435 1.4816-1.4043 0.51534-3.2209 0.51534-1.5718 0-2.8988-0.45092-1.3141-0.45092-2.3319-1.3528-0.97915-0.86319-1.546-2.1258-0.56687-1.2755-0.56687-2.8473 0-1.546 0.48957-2.7442 0.50246-1.211 1.4945-2.1515 0.95338-0.90184 2.3448-1.3914 1.4043-0.50246 3.1307-0.50246 1.8037 0 3.1693 0.50246 1.3785 0.48957 2.3577 1.3914zm-3.2982 8.9283q0.28344-0.72148 0.41227-1.7522 0.14172-1.0307 0.14172-2.3963 0-0.90184-0.12884-2.0614-0.12884-1.1595-0.3865-1.8295-0.3092-0.81166-0.86319-1.2755-0.54111-0.46381-1.3785-0.46381-0.91473 0-1.4687 0.50246-0.54111 0.50246-0.83743 1.3012-0.27055 0.73436-0.37362 1.7264-0.10307 0.97915-0.10307 2.0485 0 1.4043 0.09019 2.3319 0.09018 0.91473 0.43804 1.8423 0.29632 0.79878 0.85031 1.2626 0.55399 0.46381 1.4043 0.46381 0.77301 0 1.327-0.42516 0.55399-0.43804 0.87608-1.2755z"/>
    <path d="m76.137 102.87q-0.36074 0.0387-1.0307 0.14172-0.66994 0.10306-1.211 0.50245-0.47669 0.34786-0.68282 1.1982-0.19325 0.83742-0.19325 2.4736v13.064h-2.2933l-11.389-14.133v8.5804q0 1.5976 0.20614 2.435 0.21902 0.82454 0.69571 1.211 0.34785 0.28343 1.108 0.50245 0.76013 0.21902 1.211 0.29632v1.0049h-7.8589v-1.0049q0.50246-0.0387 1.1466-0.18037 0.65706-0.1546 1.0951-0.4638 0.50246-0.37362 0.68282-1.1209 0.19325-0.76012 0.19325-2.538v-8.6577q0-0.64418-0.20614-1.211-0.19325-0.57976-0.61841-0.99203-0.45092-0.43804-1.0436-0.68283-0.57976-0.25767-1.327-0.39939v-1.0307h6.8798l9.9976 12.368v-6.9184q0-1.6491-0.21902-2.4479-0.21902-0.81166-0.69571-1.1982-0.37362-0.29632-1.108-0.50245-0.73436-0.21902-1.1853-0.29632v-1.0049h7.846z"/>
    <path d="m90.296 108.89q0.95338 0.88896 1.4558 2.1258 0.50246 1.2368 0.50246 2.6798 0 1.4301-0.50246 2.7055-0.48957 1.2626-1.443 2.1644-1.0178 0.96626-2.435 1.4816-1.4043 0.51534-3.2209 0.51534-1.5718 0-2.8988-0.45092-1.3141-0.45093-2.3319-1.3528-0.97915-0.8632-1.546-2.1258-0.56687-1.2755-0.56687-2.8472 0-1.546 0.48957-2.7442 0.50246-1.211 1.4945-2.1515 0.95338-0.90185 2.3448-1.3914 1.4043-0.50245 3.1307-0.50245 1.8037 0 3.1693 0.50245 1.3785 0.48957 2.3577 1.3914zm-3.2982 8.9283q0.28344-0.72147 0.41227-1.7522 0.14172-1.0307 0.14172-2.3963 0-0.90185-0.12884-2.0614-0.12884-1.1595-0.3865-1.8295-0.3092-0.81166-0.8632-1.2755-0.54111-0.4638-1.3785-0.4638-0.91473 0-1.4687 0.50246-0.54111 0.50245-0.83743 1.3012-0.27055 0.73436-0.37362 1.7264-0.10307 0.97914-0.10307 2.0485 0 1.4043 0.09018 2.3319 0.09018 0.91472 0.43804 1.8423 0.29632 0.79877 0.85031 1.2626 0.55399 0.4638 1.4043 0.4638 0.77301 0 1.327-0.42515 0.55399-0.43804 0.87608-1.2755z"/>
    <path d="m103.5 119.56q-0.82455 0.36074-1.765 0.64418-0.9405 0.29632-2.2933 0.29632-2.0098 0-2.989-0.97915-0.96626-0.97914-0.96626-2.7957v-7.9105h-2.319v-1.3914h2.3706v-3.9037h4.1871v3.9037h3.6074v1.3914h-3.5816v7.0602q0 1.5074 0.41227 2.1387 0.42516 0.63129 1.5074 0.63129 0.34785 0 0.96626-0.0515t0.8632-0.11595z"/>
    <path d="m55.439 153.62q-2.0098 0-3.762-0.64418-1.7522-0.65705-3.0534-1.8939-1.2755-1.211-2.0098-2.989-0.73436-1.7908-0.73436-3.9295 0-2.1258 0.73436-3.9295 0.74724-1.8166 2.0871-3.1436 1.3141-1.3012 3.1565-2.0098 1.8423-0.72148 3.9424-0.72148 1.5203 0 2.77 0.37362 1.2497 0.36074 2.1129 0.82455l0.79878-0.7086h1.1209l0.11595 6.6737h-1.1337q-0.96626-3.0534-2.319-4.4835t-3.2982-1.4301q-2.4221 0-3.6847 2.1387-1.2626 2.1258-1.2626 5.9779 0 2.1773 0.42516 3.7233 0.43804 1.5331 1.1337 2.4736 0.74724 0.97914 1.765 1.443 1.0178 0.45092 2.2546 0.45092 1.8037 0 3.208-0.97915 1.4172-0.97914 2.5767-2.9632l1.108 0.66994q-0.55399 1.1338-1.2626 2.0356-0.70859 0.88897-1.6362 1.5331-1.0178 0.70859-2.2546 1.108-1.2239 0.39939-2.8988 0.39939z"/>
    <path d="m72.433 153.13h-8.078v-0.9405q0.33497-0.0258 0.64417-0.0644 0.32209-0.0386 0.56687-0.12883 0.41227-0.1546 0.55399-0.43804 0.1546-0.29632 0.1546-0.77301v-14.275q0-0.48958-0.20614-0.90185-0.19325-0.42515-0.52822-0.64417-0.25767-0.16749-0.78589-0.32209-0.51534-0.1546-0.91473-0.18037v-0.9405l6.4804-0.33497 0.19325 0.20614v17.225q0 0.47669 0.16748 0.77301 0.16749 0.29632 0.54111 0.46381 0.25767 0.11595 0.54111 0.20614 0.28344 0.0902 0.66994 0.12883z"/>
    <path d="m81.812 153.13h-8.1424v-0.9405q0.33497-0.0258 0.65706-0.0644 0.32209-0.0386 0.55399-0.12883 0.41227-0.1546 0.57976-0.43804 0.16749-0.29632 0.16749-0.77301v-7.4982q0-0.45093-0.20614-0.7859-0.20614-0.34785-0.51534-0.55399-0.2319-0.1546-0.70859-0.29632-0.46381-0.14172-0.85031-0.18037v-0.94049l6.3129-0.33497 0.19325 0.19325v10.229q0 0.45093 0.19325 0.77301 0.19325 0.30921 0.55399 0.46381 0.25767 0.11595 0.56687 0.20614 0.3092 0.0902 0.64418 0.12883zm-1.881-17.573q0 0.97914-0.76013 1.6748-0.74724 0.68283-1.7779 0.68283-1.0436 0-1.8037-0.68283-0.74724-0.69571-0.74724-1.6748 0-0.97915 0.74724-1.6749 0.76013-0.69571 1.8037-0.69571t1.7908 0.69571 0.74724 1.6749z"/>
    <path d="m90.354 153.55q-1.7908 0-3.1693-0.51534-1.3657-0.52822-2.2546-1.4301-0.88896-0.91473-1.327-2.1644-0.43804-1.2497-0.43804-2.7184 0-1.3399 0.52822-2.5509 0.54111-1.211 1.4558-2.1258 0.9405-0.9405 2.3319-1.4945 1.4043-0.56687 3.092-0.56687 2.3706 0 3.7491 0.90184 1.3785 0.88896 1.3785 2.4092 0 0.92761-0.48957 1.4945t-1.6877 0.56687q-0.96626 0-1.6233-0.4638-0.64417-0.46381-0.64417-1.211 0-0.63129 0.20614-1.2497 0.20614-0.61841 0.24479-0.94049-0.14172-0.23191-0.36074-0.34786-0.21902-0.12883-0.68282-0.12883-0.57976 0-1.0564 0.27055t-0.88896 0.95338q-0.39939 0.64417-0.64418 1.7264-0.2319 1.0822-0.2319 2.6025 0 2.2933 1.0693 3.6976 1.0822 1.4043 2.5767 1.4043 1.4301 0 2.2675-0.63129 0.85031-0.64418 1.5074-1.8166l0.96626 0.66995q-0.39939 0.78589-0.95338 1.443-0.55399 0.64417-1.327 1.1466-0.81166 0.52822-1.6491 0.79877-0.83743 0.27056-1.9454 0.27056z"/>
    <path d="m113.54 153.13h-6.0681q-1.1209-1.9712-2.0485-3.3368-0.92761-1.3785-1.7522-2.5509l-0.77301 0.65706v2.8086q0 0.46381 0.12884 0.76013 0.14172 0.29632 0.52822 0.43803 0.2319 0.10307 0.54111 0.18037 0.3092 0.0773 0.6184 0.10307v0.9405h-7.9749v-0.9405q0.32209-0.0258 0.64418-0.0644 0.32209-0.0515 0.56687-0.12883 0.41227-0.14172 0.55399-0.43804 0.1546-0.29632 0.1546-0.77301v-14.365q0-0.42515-0.19325-0.87608-0.18037-0.4638-0.54111-0.69571-0.24479-0.1546-0.73436-0.25766-0.48957-0.10307-0.88896-0.12884v-0.9405l6.4031-0.33497 0.19325 0.20614v13.296q0.95338-0.85031 2.1387-1.9712 1.1982-1.1209 1.9196-1.8552 0.42516-0.43804 0.46381-0.65706 0.0515-0.2319 0.0515-0.28344 0-0.2319-0.41227-0.3865-0.39939-0.1546-1.211-0.27055v-0.91473h6.5448v0.88896q-1.2884 0.36074-1.9712 0.68282-0.66994 0.30921-1.4687 0.83743-0.52822 0.34786-1.0307 0.73436-0.48958 0.37362-1.1338 0.9405 1.2626 1.8294 2.3319 3.3884 1.0693 1.5589 2.2417 3.2982 0.39939 0.60553 0.99203 0.81166 0.59264 0.20614 1.1853 0.25767z"/>
   </g>
  </g>
 </g>
</svg>
